<svg xmlns:inkscape="http://www.inkscape.org/namespaces/inkscape" xmlns:sodipodi="http://sodipodi.sourceforge.net/DTD/sodipodi-0.dtd" xmlns="http://www.w3.org/2000/svg" xmlns:svg="http://www.w3.org/2000/svg" version="1.1" id="svg1" width="1500" height="1500" viewBox="0 0 400 400" sodipodi:docname="JavaOne.svg" inkscape:version="1.3.2 (091e20e, 2023-11-25)">
  <defs id="defs1"/>
  <sodipodi:namedview id="namedview1" pagecolor="#ffffff" bordercolor="#000000" borderopacity="0.25" inkscape:showpageshadow="2" inkscape:pageopacity="0.0" inkscape:pagecheckerboard="0" inkscape:deskcolor="#d1d1d1" showgrid="false" inkscape:zoom="2.2735263" inkscape:cx="168.02093" inkscape:cy="163.62247" inkscape:window-width="1728" inkscape:window-height="1027" inkscape:window-x="626" inkscape:window-y="25" inkscape:window-maximized="0" inkscape:current-layer="g1">
    <inkscape:page x="0" y="0" inkscape:label="1" id="page1" width="208" height="77.000008" margin="0" bleed="0"/>
    <inkscape:grid id="grid4" units="px" originx="0" originy="0" spacingx="1" spacingy="1" empcolor="#0099e5" empopacity="0.30196078" color="#0099e5" opacity="0.14901961" empspacing="5" dotted="false" gridanglex="30" gridanglez="30" visible="false"/>
  </sodipodi:namedview>
  <g id="g1" inkscape:groupmode="layer" inkscape:label="1">
    <g id="JavaOne" transform="matrix(0.68505085,0,0,0.6884933,-16.984612,-16.060436)">
      <path id="path3" d="m 595.531,847.289 c -18.105,-5.125 -58.886,-13.484 -117.211,-13.484 -57.238,0 -104.007,9.793 -104.148,21.336 -0.102,7.672 9.18,11.019 9.18,11.019 l -1.645,0.957 c -27.414,-4.844 -52.871,-12.336 -52.73,-23.547 0.257,-20.343 78.058,-35.621 149.23,-35.621 60.508,0 118.625,10.156 144.836,23.457 z M 402.109,784.395 c -12.707,-2.532 -40.41,-8.891 -40.41,-22.364 0,-18.66 59.266,-32.953 116.489,-32.953 78.73,0 110.98,20.258 112.437,21.309 l -32.734,18.941 c -13.926,-3.316 -37.379,-8.531 -79.625,-8.531 -47.149,0 -77.86,8.074 -77.86,16.91 0,1.875 1.168,4.106 3.356,5.734 z m 321.743,125.558 c -2.207,-42.258 -41.247,-68.566 -80.266,-90.797 l 3.535,-2.043 c 41.641,11.715 115.93,45.825 109.789,98.254 -3.062,26.149 -26.961,44.828 -58.117,44.828 -9.699,0 -18.332,-1.711 -25.324,-3.843 l -0.028,-0.063 -1.476,-3.723 c 27.863,5.457 53.332,-14.898 51.887,-42.613 z M 477.109,661.977 c 109.528,0.953 232.067,22.386 231.75,58.418 -0.054,6.531 -4.304,11.007 -8,13.707 l -1.796,-1.032 c -10.129,-27.91 -95.708,-48.527 -222.141,-49.632 -81.574,-0.711 -194.586,18.835 -194.781,41.421 -0.2,22.645 53.535,35.09 53.535,35.09 l -3.801,2.168 C 295.867,757.156 229.527,739.91 229.742,715.016 230.059,679.02 382.535,661.148 477.109,661.977 Z m -11.39,-25.727 c -43.539,-0.379 -96.692,3.227 -141.41,10.738 l -4.141,-2.383 c 44.547,-13.058 106.559,-20.945 174.699,-20.351 133.824,1.168 242.321,34.355 244.469,74.293 l -1.547,0.902 c -8.973,-10.945 -66.851,-61.41 -272.07,-63.199 z M 298.07,919.586 c 0,20.187 76.567,31.512 112.219,34.254 l 3.406,-1.969 C 400,949.383 345.047,939.695 345.047,927.047 c 0,-13.762 84.281,-22.781 133.199,-22.781 83.09,0 139.57,12.578 154.762,16.722 l 21.25,-12.367 C 639.707,901.496 577.227,882.82 478.25,882.82 c -109.992,0 -180.18,21.52 -180.18,36.766 z m 2050.64,-23.578 h 8.25 v 31.633 h 10.88 v 6.453 h -30.34 v -6.453 h 11.21 z m 62.88,0 h 7.77 v 38.086 h -11.69 l -9.49,-26 -10.4,26 h -11.24 v -38.086 h 7.3 v 28.984 h 0.45 l 10.82,-28.984 h 5.63 l 10.85,28.984 V 896.008 M 1534.54,757.832 v 54.481 h -19.8 c -44.65,0 -66.93,-13.844 -66.93,-41.52 0,-23.977 11.83,-35.977 35.49,-35.977 16.34,0 33.41,7.692 51.24,23.016 z m 47.05,-53 h -36.88 l -3.72,24.93 c -22.76,-19.778 -46.45,-29.621 -71.07,-29.621 -46.11,0 -69.16,21.238 -69.16,63.722 0,24.336 9.36,43.211 28.12,56.746 20.34,14.465 49.97,21.692 89.1,21.692 h 16.56 v 20.762 c 0,27.394 -15.83,41.07 -47.55,41.07 -20.62,0 -43.01,-4.465 -67.35,-13.379 l -6.9,29.07 c 28.59,12.621 57.66,18.946 87.21,18.946 54.45,0 81.64,-23.27 81.64,-69.68 z M 1386.88,934.57 c -15.07,-84.886 -38.74,-161.484 -71.02,-229.738 h -58.64 l -70.56,229.738 h 51.18 l 43.85,-141.172 9.69,-42.48 c 22.75,62.734 37.99,123.977 45.69,183.652 z M 1109.12,757.832 v 54.481 h -19.87 c -44.55,0 -66.75,-13.844 -66.75,-41.52 0,-23.977 11.86,-35.977 35.44,-35.977 16.32,0 33.36,7.692 51.18,23.016 z m 47.07,-53 h -36.93 l -3.66,24.93 c -22.78,-19.778 -46.45,-29.621 -71.06,-29.621 -46.013,0 -69.087,21.238 -69.087,63.722 0,24.336 9.367,43.211 28.117,56.746 20.34,14.465 49.86,21.692 88.99,21.692 h 16.56 v 20.762 c 0,27.394 -15.82,41.07 -47.49,41.07 -20.51,0 -42.96,-4.465 -67.302,-13.379 l -6.887,29.07 c 28.639,12.621 57.589,18.946 87.089,18.946 54.44,0 81.66,-23.27 81.66,-69.68 z m -223.667,32.27 c 0,-50.145 -16.929,-87.821 -50.746,-113.004 l -24.425,20.718 c 10.734,12.622 17.961,27.731 21.632,45.227 2.508,12.027 3.707,28.59 3.707,49.816 v 276.421 h 49.832 z M 2283.55,842.344 v 1.351 c 0,41.848 -14.45,62.789 -43.41,62.789 -14.11,0 -25.38,-6 -33.66,-17.984 -8.28,-12.016 -12.87,-27.383 -13.86,-46.156 z m 46.14,-30.481 h -137.07 v -4.14 c 0,-47.059 19.27,-70.582 57.66,-70.582 23.1,0 46.65,4.453 70.68,13.394 l 7.78,-27.703 c -29.5,-15.086 -58.96,-22.621 -88.6,-22.621 -64.31,0 -96.42,37.703 -96.42,113.059 0,40.3 8.73,71.355 26.06,93.214 17.38,21.832 41.74,32.75 73.15,32.75 58.15,0 87.22,-36.394 87.22,-109.371 0,-5.832 -0.14,-11.832 -0.46,-18 z m -227.04,24.45 c 0,-8.575 -0.34,-28.282 -0.96,-59.028 -0.62,-30.762 -0.9,-54.933 -0.9,-72.453 h -47.05 c 0,15.691 0.11,37.734 0.48,66.199 0.31,28.449 0.42,47 0.42,55.578 0,27.75 -3.24,47.243 -9.71,58.637 -5.75,10.465 -15.19,15.692 -28.09,15.692 -14.2,0 -30.85,-7.68 -49.86,-23.043 V 704.832 h -47.58 v 229.809 h 39.27 l 3.69,-25.887 c 22.45,20.351 46.14,30.48 71.07,30.48 46.12,0 69.22,-34.312 69.22,-102.921 z m -279.62,21.226 c 0,44.34 -6.34,76.625 -18.96,96.934 -11.72,18.789 -30.03,28.144 -54.87,28.144 -47.75,0 -71.53,-39.199 -71.53,-117.668 0,-44.918 6.2,-77.551 18.85,-97.804 11.78,-18.778 30.03,-28.157 54.93,-28.157 47.69,0 71.58,39.524 71.58,118.551 z m 52.59,8.789 c 0,-56.027 -12.19,-98.297 -36.48,-126.89 -22.14,-26.125 -53.01,-39.227 -92.7,-39.227 -39.67,0 -69.44,11.551 -89.08,34.605 -21.57,25.567 -32.31,65.68 -32.31,120.442 0,55.664 12.17,97.805 36.43,126.441 22.14,26.131 53.1,39.201 92.76,39.201 80.96,0 121.38,-51.541 121.38,-154.572" style="fill:#00758f;fill-opacity:1;fill-rule:nonzero;stroke:none" transform="matrix(0.13333333,0,0,-0.13333333,0,211.06667)"/>
      <path id="path4" d="m 630.473,1201.74 -1.84,1.05 c -33.457,-11.2 -136.43,-51.85 -136.43,-127.63 0,-42.87 41.856,-66.61 41.856,-106.793 0,-14.344 -8.098,-27.781 -14.692,-35.82 l 3.317,-1.91 c 17.421,11.324 48.265,35.84 48.265,67.5 0,26.803 -37.105,59.013 -37.105,93.473 0,54.29 71.59,96.89 96.629,110.13 z m -50.551,99.32 c 0,-112.16 -153.703,-155.08 -153.703,-234.82 0,-55.98 37.121,-91.084 57.66,-113.279 l -1.668,-0.965 c -25.93,16.223 -94.156,56.984 -94.156,124.314 0,94.53 176.55,139.7 176.55,247.07 0,13.21 -1.957,23.34 -3.324,28.8 l 1.782,1.03 c 5.597,-7.03 16.859,-24.61 16.859,-52.15" style="fill:#f29111;fill-opacity:1;fill-rule:nonzero;stroke:none" transform="matrix(0.13333333,0,0,-0.13333333,0,211.06667)"/>
    </g>
  </g>
</svg>